<svg data-v-0dd9719b="" version="1.0" xmlns="http://www.w3.org/2000/svg" xmlns:xlink="http://www.w3.org/1999/xlink" width="100%" height="100%" viewBox="0 0 340.000000 250.000000" preserveAspectRatio="xMidYMid meet" color-interpolation-filters="sRGB" style="margin: auto;"> <rect data-v-0dd9719b="" x="0" y="0" width="100%" height="100%" fill="#fff" fill-opacity="1" class="background"></rect> <rect data-v-0dd9719b="" x="0" y="0" width="100%" height="100%" fill="url(#watermark)" fill-opacity="1" class="watermarklayer"></rect> <g data-v-0dd9719b="" fill="#00476e" class="icon-text-wrapper icon-svg-group iconsvg" transform="translate(122.95000076293945,67.97953796386719)"><g class="iconsvg-imagesvg" transform="translate(17.049999237060547,0)"><g><rect fill="#00476e" fill-opacity="0" stroke-width="2" x="0" y="0" width="60" height="60.03842459173871" class="image-rect"></rect> <svg x="0" y="0" width="60" height="60.03842459173871" filtersec="colorsb8657084521" class="image-svg-svg primary" style="overflow: visible;"><svg xmlns="http://www.w3.org/2000/svg" viewBox="0 0 77.87000274658203 77.91999816894531"><g><g><path d="M77.86 48v29.92L48 77.86zM0 29.91V0h29.91z" fill="#00476e"></path><path fill="#8fc31f" d="M77.87.01l-.01 29.72-19.5 19.5-29.71-29.71L48.15.02 77.87.01z"></path><path fill="#c30d23" d="M49.25 58.34L29.73 77.86l-29.72.01.01-29.72 19.52-19.52 29.71 29.71z"></path></g></g></svg></svg> <!----></g></g> <g transform="translate(0,67.0384292602539)"><g data-gra="path-name" fill-rule="" class="tp-name iconsvg-namesvg" transform="translate(0,0)"><g transform="scale(1)"><g><path d="M7.69 5.04L7.69 5.04 4.18 5.04 4.18-22.14 2.83-22.14 2.83-25.7 7.69-25.7 7.69 5.04ZM25.56 5.04L25.56 5.04 22.05 5.04 22.05-25.7 25.56-25.7 25.56 5.04ZM23.8-9.18L23.8-9.18 4.5-9.18 4.5-12.73 23.8-12.73 23.8-9.18ZM37.17 5.04L37.17 5.04 33.61 5.04 33.61-25.7 37.17-25.7 37.17 5.04ZM67.45-22.36L58.95 5.04 54.09 5.04 45.59-22.36 44.33-22.36 44.33-25.88 48.2-25.88 56.48 0.94 64.84-25.88 68.67-25.88 68.67-22.36 67.45-22.36ZM96.93 5.17L96.93 5.17 75.78 5.17 75.78-23.8 79.29-23.8 79.29 1.67 96.93 1.67 96.93 5.17ZM94.27-8.55L94.27-8.55 76.09-8.55 76.09-12.11 94.27-12.11 94.27-8.55ZM96.61-22.27L96.61-22.27 74.61-22.27 74.61-25.83 96.61-25.83 96.61-22.27Z" transform="translate(-2.8299999237060547, 25.8799991607666)"></path></g> <!----> <!----> <!----> <!----> <!----> <!----> <!----></g></g> <g data-gra="path-slogan" fill-rule="" class="tp-slogan iconsvg-slogansvg" fill="#c30d23" transform="translate(5.000003814697266,38.04999923706055)"><rect x="0" height="1" y="3.9750003814697266" width="14.839174270629883"></rect> <rect height="1" y="3.9750003814697266" width="14.839174270629883" x="69.26082420349121"></rect> <g transform="translate(17.839174270629883,0)"><g transform="scale(1)"><path d="M7.17-6.09L7.17-6.09L6.09-6.09Q6-7.73 3.94-7.83L3.94-7.83Q2.02-7.78 2.02-6.33L2.02-6.33Q2.02-5.39 3.05-5.25L3.05-5.25L5.48-4.69Q7.41-4.22 7.41-2.34L7.41-2.34Q7.36 0.05 4.03 0.14L4.03 0.14Q2.20 0.14 1.45-0.61L1.45-0.61Q0.52-1.31 0.56-2.77L0.56-2.77L1.69-2.77Q1.73-0.80 4.03-0.75L4.03-0.75Q6.28-0.80 6.33-2.20L6.33-2.20Q6.52-3.38 4.45-3.75L4.45-3.75L2.67-4.13Q0.84-4.64 0.84-6.19L0.84-6.19Q0.98-8.72 3.84-8.81L3.84-8.81Q7.08-8.81 7.17-6.09ZM8.86-8.58L10.03-8.58L10.03-1.03L14.39-1.03L14.39 0L8.86 0L8.86-8.58ZM22.31-4.27L22.31-4.27Q22.13-7.64 19.31-7.83L19.31-7.83Q16.45-7.69 16.31-4.27L16.31-4.27Q16.45-0.94 19.31-0.80L19.31-0.80Q22.13-0.98 22.31-4.27ZM23.48-4.27L23.48-4.27Q23.20 0 19.31 0.14L19.31 0.14Q15.38 0 15.09-4.27L15.09-4.27Q15.33-8.72 19.31-8.81L19.31-8.81Q23.20-8.67 23.48-4.27ZM31.27-3.61L28.64-3.61L28.64-4.59L32.39-4.59L32.39 0L31.64 0L31.36-1.08Q30.38 0.09 28.55 0.14L28.55 0.14Q26.81 0.14 25.88-0.75L25.88-0.75Q24.47-2.06 24.52-4.36L24.52-4.36Q24.84-8.63 28.59-8.81L28.59-8.81Q31.78-8.63 32.25-6L32.25-6L31.13-6Q30.66-7.78 28.55-7.83L28.55-7.83Q25.88-7.64 25.73-4.31L25.73-4.31Q25.73-0.75 28.59-0.75L28.59-0.75Q29.63-0.75 30.38-1.31L30.38-1.31Q31.31-2.06 31.27-3.61L31.27-3.61ZM39.84 0L39-2.48L35.53-2.48L34.64 0L33.47 0L36.70-8.58L38.02-8.58L41.11 0L39.84 0ZM37.27-7.31L35.91-3.52L38.58-3.52L37.31-7.31L37.27-7.31ZM43.55-8.58L47.86-1.64L47.86-8.58L48.98-8.58L48.98 0L47.67 0L43.31-6.94L43.27-6.94L43.27 0L42.14 0L42.14-8.58L43.55-8.58Z" transform="translate(-0.5602678571428572, 8.8125)"></path></g></g></g></g></g><defs v-gra="od"></defs></svg>